HIERARCHY
ROOT Hips
{
    OFFSET 0.0 0.0 0.0
    CHANNELS 6 Xposition Yposition Zposition Zrotation Xrotation Yrotation
    JOINT LeftHipJoint
    {
        OFFSET 0.1 0.0 0.0
        CHANNELS 3 Zrotation Xrotation Yrotation
        JOINT LeftUpLeg
        {
            OFFSET 0.09394044704138166 0.0 0.0
            CHANNELS 3 Zrotation Xrotation Yrotation
            JOINT LeftLeg
            {
                OFFSET 0.0 0.0 -0.304134613631626
                CHANNELS 3 Zrotation Xrotation Yrotation
                JOINT LeftFoot
                {
                    OFFSET 0.0 0.0 -0.27803747050509264
                    CHANNELS 3 Zrotation Xrotation Yrotation
                    End Site
                    {
                        OFFSET 0.0 -0.1 0.0
                    }
                }
            }
        }
    }
    JOINT LowerBack
    {
        OFFSET 0.0 0.0 0.1
        CHANNELS 3 Zrotation Xrotation Yrotation
        JOINT Spine
        {
            OFFSET 0.0 0.0 0.23670404012399215
            CHANNELS 3 Zrotation Xrotation Yrotation
            JOINT Spine1
            {
                OFFSET 0.0 0.0 0.24676711019761527
                CHANNELS 3 Zrotation Xrotation Yrotation
                JOINT LeftShoulder
                {
                    OFFSET 0.1 0.0 0.0
                    CHANNELS 3 Zrotation Xrotation Yrotation
                    JOINT LeftArm
                    {
                        OFFSET 0.15704070108345217 0.0 0.0
                        CHANNELS 3 Zrotation Xrotation Yrotation
                        JOINT LeftForeArm
                        {
                            OFFSET 0.23869040571543795 0.0 0.0
                            CHANNELS 3 Zrotation Xrotation Yrotation
                            JOINT LeftHand
                            {
                                OFFSET 0.21194048154176365 0.0 0.0
                                CHANNELS 3 Zrotation Xrotation Yrotation
                                End Site
                                {
                                    OFFSET 0.1 0.0 0.0
                                }
                            }
                        }
                    }
                }
                JOINT Neck
                {
                    OFFSET 0.0 0.0 0.1
                    CHANNELS 3 Zrotation Xrotation Yrotation
                    JOINT Neck1
                    {
                        OFFSET 0.0 0.0 0.13452051719706745
                        CHANNELS 3 Zrotation Xrotation Yrotation
                        End Site
                        {
                            OFFSET 0.0 0.0 0.14057997901502708
                        }
                    }
                }
                JOINT RightShoulder
                {
                    OFFSET -0.1 0.0 0.0
                    CHANNELS 3 Zrotation Xrotation Yrotation
                    JOINT RightArm
                    {
                        OFFSET -0.15704070108345217 0.0 0.0
                        CHANNELS 3 Zrotation Xrotation Yrotation
                        JOINT RightForeArm
                        {
                            OFFSET -0.23869040571543795 0.0 0.0
                            CHANNELS 3 Zrotation Xrotation Yrotation
                            JOINT RightHand
                            {
                                OFFSET -0.21194048154176365 0.0 0.0
                                CHANNELS 3 Zrotation Xrotation Yrotation
                                End Site
                                {
                                    OFFSET -0.1 0.0 0.0
                                }
                            }
                        }
                    }
                }
            }
        }
    }
    JOINT RightHipJoint
    {
        OFFSET -0.1 0.0 0.0
        CHANNELS 3 Zrotation Xrotation Yrotation
        JOINT RightUpLeg
        {
            OFFSET -0.09394044704138166 0.0 0.0
            CHANNELS 3 Zrotation Xrotation Yrotation
            JOINT RightLeg
            {
                OFFSET 0.0 0.0 -0.304134613631626
                CHANNELS 3 Zrotation Xrotation Yrotation
                JOINT RightFoot
                {
                    OFFSET 0.0 0.0 -0.27803747050509264
                    CHANNELS 3 Zrotation Xrotation Yrotation
                    End Site
                    {
                        OFFSET 0.0 -0.1 0.0
                    }
                }
            }
        }
    }
}
MOTION
Frames: 9
Frame Time: 0.03333333333333333
-0.01589122600853443 -0.49865108728408813 0.008803483098745285 -8.527862343498603 -57.22098034842692 -13.04222048593248 1.987846675914698e-16 3.4483642953516864e-34 1.987846675914698e-16 32.26901446440198 -71.16865644192988 9.709734169604637 -109.92981375429389 60.21719155018746 136.90003938962914 0.0 0.0 2.3854160110976376e-15 1.987846675914698e-16 3.4483642953516864e-34 1.987846675914698e-16 -2.210889573074688 16.638772964933963 4.895130096433906 0.14962831469923363 7.679608622266921e-15 1.1826813417684907e-15 -3.975693351829396e-16 -2.758691436281349e-33 7.951386703658792e-16 -29.328064557755713 22.02125822717531 19.35083325208768 -89.19080805157279 8.651875347328379e-16 3.086331153295157e-15 0.0 0.0 0.0 -3.975693351829396e-16 -2.758691436281349e-33 7.951386703658792e-16 -22.267700660244596 -22.423243727795857 -12.117781342551451 -3.975693351829396e-16 -2.758691436281349e-33 7.951386703658792e-16 28.835170262473447 31.389602690180567 -13.800886234114943 87.30907500267502 7.19118556105333e-16 -6.861137689926214e-16 6.3611093629270335e-15 0.0 0.0 1.987846675914698e-16 3.4483642953516864e-34 1.987846675914698e-16 16.855865149671438 -76.33113239835167 43.33253438495045 116.19062379120969 56.78401192094141 -147.54860575654226 0.0 0.0 1.987846675914698e-15
-0.015023872256278992 -0.4683081805706024 0.009054885245859566 -9.291672610329817 -58.2301085884555 -13.534925045598566 3.975693351829396e-16 -1.3793457181406746e-33 -3.975693351829396e-16 21.91175638975341 -67.0010523339587 2.1608656084528657 -94.47289981672715 64.0586822533181 121.36460966204804 0.0 0.0 0.0 3.975693351829396e-16 -1.3793457181406746e-33 -3.975693351829396e-16 -1.8729335341204711 14.1814068886146 4.769522253223396 0.6082797211380578 -4.172308822208836e-15 4.1972276924664394e-16 0.0 0.0 1.987846675914698e-16 -36.08293566153612 21.018854842002447 26.531983691956377 -81.9835596010589 -7.160208507360528e-18 -2.1130978707249012e-15 0.0 -7.951386703658792e-16 0.0 0.0 0.0 1.987846675914698e-16 -30.206323302752686 -17.32649490560124 -12.879810245702169 0.0 0.0 1.987846675914698e-16 39.0702800132548 30.0306233874826 -24.60749537989135 77.01440679703788 -1.6123471567148451e-15 -7.493758548216294e-16 0.0 0.0 0.0 3.975693351829396e-16 -1.3793457181406746e-33 -3.975693351829396e-16 15.832728582575674 -70.74321159615613 38.96691251621189 104.5912983562319 62.47606619595667 -136.44395118578944 0.0 0.0 6.758678698109974e-15
-0.014713702723383904 -0.43431782722473145 0.00889000482857222 -9.944451173453283 -58.59055663455023 -13.760389820130463 3.975693351829396e-16 -6.3362612794781e-15 2.1983322382867e-32 14.429104382967259 -62.09244253095149 -2.153115563961161 -71.35676518665338 65.66198728399486 97.46605970418886 0.0 0.0 7.951386703658792e-16 3.975693351829396e-16 -6.3362612794781e-15 2.1983322382867e-32 -1.6092387557056234 12.48360408570873 4.447691725466633 0.5877044671247741 6.811343824127561e-15 5.614282755748266e-16 -3.975693351829396e-16 0.0 0.0 -42.726262835861455 19.514757564131084 34.006876917294726 -71.68815942931226 -3.558830757182697e-17 -1.987528082646705e-15 0.0 0.0 0.0 -3.975693351829396e-16 0.0 0.0 -25.65800056648912 -18.723595668576813 -11.442490377896814 -3.975693351829396e-16 0.0 0.0 47.231495184624876 25.072667488714153 -34.557928450895 65.43221746934833 -4.39500416411993e-15 -9.569715570106887e-16 0.0 0.0 0.0 3.975693351829396e-16 -6.3362612794781e-15 2.1983322382867e-32 14.698924125134425 -65.40544747506519 34.54232035783118 84.9460921818446 66.62715046296823 -117.006414317405 0.0 0.0 -1.5902773407317584e-15
-0.01518004946410656 -0.4008978605270386 0.008215496316552114 -10.506329183796103 -60.27836636397766 -13.994664592310397 3.975693351829395e-16 2.484808344893372e-17 -8.620910738379216e-35 9.200447964534929 -55.86139177523626 -3.7891085322826057 -48.36079580859084 64.35564410071441 72.25976940898231 0.0 0.0 7.951386703658792e-16 3.975693351829395e-16 2.484808344893372e-17 -8.620910738379216e-35 -1.2421327745926682 9.977880728297183 4.029786220656263 0.7542079795123817 9.537532379620484e-15 -6.591410625437717e-16 3.975693351829396e-16 -6.896728590703373e-34 -1.987846675914698e-16 -47.31134113664334 15.025758024492019 43.71768433911897 -61.327860941375945 2.4816556018026874e-15 5.168960411903413e-15 -1.2722218725854067e-14 1.9878466759146997e-16 -1.5902773407317584e-15 3.975693351829396e-16 -6.896728590703373e-34 -1.987846675914698e-16 -29.766076469176145 -14.863580299636245 -10.858550989422007 3.975693351829396e-16 -6.896728590703373e-34 -1.987846675914698e-16 52.334808687660626 18.991797080921682 -45.05114315767024 54.01960622992584 2.8336478766955762e-15 -1.444426458037288e-15 0.0 0.0 0.0 3.975693351829395e-16 2.484808344893372e-17 -8.620910738379216e-35 12.853955683699597 -59.40944969321811 29.725872094464957 62.37850142977959 68.01034640794794 -93.55110858380745 0.0 0.0 0.0
-0.016060665249824524 -0.3714582622051239 0.007437378633767321 -11.023839910148418 -62.183709630622246 -14.20865565683604 -3.975693351829396e-16 6.3611093629270335e-15 3.975693351829396e-16 6.62230816347729 -49.70017517260367 -3.090344646432537 -31.639416080449934 60.37546829840361 52.16112508932973 0.0 0.0 -7.951386703658792e-16 -3.975693351829396e-16 6.3611093629270335e-15 3.975693351829396e-16 -1.0407161777942686 8.414813340750793 3.644445710137582 0.7706110540981578 2.459904637514163e-15 -1.6542739256373944e-17 0.0 0.0 0.0 -49.698521205255034 10.059641026769762 52.03907142170803 -51.21797429956579 3.614806976344718e-15 3.4961394034303456e-15 0.0 0.0 6.3611093629270335e-15 0.0 0.0 0.0 -30.6011483560788 -12.412008392698917 -9.669872140976402 0.0 0.0 0.0 54.23621727516573 13.111738755764957 -53.182618596422415 44.49991549980637 -6.4896213729168705e-15 9.36754388163397e-16 0.0 0.0 -3.1805546814635168e-15 -3.975693351829396e-16 6.3611093629270335e-15 3.975693351829396e-16 10.970019623406598 -53.61682761901226 25.448714544965366 41.83306614014992 65.90446537066158 -71.53944872210471 0.0 0.0 -7.951386703658792e-16
-0.018034055829048157 -0.3373959958553314 0.006498110480606514 -11.102906026718186 -64.82273934002278 -13.944067641233762 -3.975693351829396e-16 6.896728590703373e-34 -1.987846675914698e-16 3.929042193947152 -42.45662232708223 -2.175074715000552 -17.739350826528007 53.344722242268354 34.046699028303976 0.0 0.0 -7.951386703658792e-16 -3.975693351829396e-16 6.896728590703373e-34 -1.987846675914698e-16 -0.8627705395259926 7.414022050301252 3.3751521791324293 0.8195351223539608 -7.396380739615838e-15 -5.434709675981861e-16 -3.975693351829396e-16 0.0 0.0 -50.70678472746131 6.98985717033925 59.79383232121535 -45.893066970408 3.548878997306266e-15 -2.244280835876744e-16 -6.3611093629270335e-15 0.0 0.0 -3.975693351829396e-16 0.0 0.0 -35.05739889132146 -8.775302705480817 -8.856710429199474 -3.975693351829396e-16 0.0 0.0 54.22700793506105 8.731993605003217 -61.393440075843685 38.6278682662957 9.004664380057138e-15 -3.1558472932868015e-15 0.0 0.0 -3.1805546814635168e-15 -3.975693351829396e-16 6.896728590703373e-34 -1.987846675914698e-16 9.00629581134446 -46.59695187815042 20.985309321637402 24.471661613600315 60.52611985588418 -51.73930564997449 6.896728590703373e-34 1.9878466759146985e-16 -3.975693351829397e-16
-0.02023080736398697 -0.30734023451805115 0.005751979537308179 -11.504653461023947 -68.18637041085806 -13.909450828339617 1.987846675914698e-16 3.4483642953516864e-34 1.987846675914698e-16 1.874303044634174 -34.531166570086214 -0.9595944522736838 -8.889279827021422 45.15704609473884 21.147368375031665 0.0 0.0 0.0 1.987846675914698e-16 3.4483642953516864e-34 1.987846675914698e-16 -0.7653679871974992 7.139965180119468 3.08690834272555 0.97054299624569 2.365388863158494e-14 1.1911991627168613e-15 3.975693351829396e-16 6.3611093629270335e-15 -2.2069531490250793e-32 -50.87072727786587 5.002023802723439 66.93107404466578 -42.91695973499188 -4.756643363387306e-15 -5.2871527614057985e-15 0.0 0.0 -3.1805546814635168e-15 3.975693351829396e-16 6.3611093629270335e-15 -2.2069531490250793e-32 -42.80764429411679 -5.208488299655019 -7.742405193352559 3.975693351829396e-16 6.3611093629270335e-15 -2.2069531490250793e-32 53.22690440391488 5.926198322223517 -69.00222279411425 35.24733036392338 4.9571897213245705e-15 5.0995990504834286e-15 0.0 0.0 0.0 1.987846675914698e-16 3.4483642953516864e-34 1.987846675914698e-16 7.264079833262433 -38.90037865277777 16.933018502444327 13.365987526082867 54.009714786014776 -37.67354813250445 0.0 0.0 -3.975693351829396e-16
-0.02357415482401848 -0.27996402978897095 0.0052087204530834805 -10.986212743443716 -71.68514014996875 -12.807885262344797 -1.9878466759146977e-16 6.361109362927032e-15 2.981770013872046e-16 0.3908182402294495 -26.831807923389324 0.0014508611655502967 -3.8341437100006686 38.209653182297835 13.06517884614338 0.0 0.0 7.951386703658792e-16 -1.9878466759146977e-16 6.361109362927032e-15 2.981770013872046e-16 -0.6149886844220912 6.881847138600838 2.6600930279699226 0.8839992347879365 1.9974119764970665e-14 2.4349078550706386e-16 3.975693351829396e-16 0.0 0.0 -51.6075845712063 4.165725758851714 72.84237508468713 -39.723541883154965 5.403000544638273e-16 -1.4956797356356938e-15 8.827812596100317e-32 3.180554681463516e-15 -3.180554681463516e-15 3.975693351829396e-16 0.0 0.0 -48.63588806716599 -2.2553340052064916 -6.495220192698196 3.975693351829396e-16 0.0 0.0 52.33687737405397 4.543450815651496 -75.8893216969218 33.34876308738457 1.8252072528195494e-15 6.093630347450761e-15 0.0 0.0 3.1805546814635168e-15 -1.9878466759146977e-16 6.361109362927032e-15 2.981770013872046e-16 5.348399510869578 -30.86842938628582 12.563416398590858 6.273024654511313 47.310534204917566 -27.035365566062346 0.0 0.0 -7.951386703658792e-16
-0.02766537480056286 -0.24814748764038086 0.005409648641943901 -10.526109183678324 -74.91295407782937 -11.580229901580825 0.0 6.3673213837892666e-15 0.0 -0.009110922311264976 -19.049036634061306 0.9282534488570806 -1.137680530701436 30.824961399505444 7.221625155889257 0.0 0.0 0.0 0.0 6.3673213837892666e-15 0.0 -0.45434335043412793 6.729063693442617 1.6965759189142315 0.7327688613260952 2.418261513642379e-15 -2.142527931896243e-16 1.987846675914698e-16 0.0 0.0 -52.73464286111178 3.8962370607821266 78.0187096217574 -37.498578640779925 -3.0117757371465215e-15 -1.0223184390956774e-15 0.0 0.0 0.0 1.987846675914698e-16 0.0 0.0 -46.89624561990001 -1.3079525270004893 -5.870054480569663 1.987846675914698e-16 0.0 0.0 52.96193605065177 4.681017475668099 -81.76816923259807 33.26271797471892 4.551577803714534e-16 1.5237497876660083e-15 0.0 0.0 0.0 0.0 6.3673213837892666e-15 0.0 3.0941094871524872 -22.974420983547343 7.630861658397987 1.8418460344924454 40.38203078187622 -17.600877747754108 0.0 0.0 1.987846675914698e-16
